<?xml version="1.0" standalone="no"?><!DOCTYPE svg PUBLIC "-//W3C//DTD SVG 1.1//EN" "http://www.w3.org/Graphics/SVG/1.1/DTD/svg11.dtd"><svg t="1658288664495" class="icon" viewBox="0 0 1024 1024" version="1.1" xmlns="http://www.w3.org/2000/svg" p-id="2423" xmlns:xlink="http://www.w3.org/1999/xlink" width="256" height="256"><defs><style type="text/css">@font-face { font-family: feedback-iconfont; src: url("//at.alicdn.com/t/font_1031158_u69w8yhxdu.woff2?t=1630033759944") format("woff2"), url("//at.alicdn.com/t/font_1031158_u69w8yhxdu.woff?t=1630033759944") format("woff"), url("//at.alicdn.com/t/font_1031158_u69w8yhxdu.ttf?t=1630033759944") format("truetype"); }
</style></defs><path d="M554.666667 682.666667H298.666667a42.666667 42.666667 0 0 0 0 85.333333h256a42.666667 42.666667 0 0 0 0-85.333333z m-170.666667-256h85.333333a42.666667 42.666667 0 0 0 0-85.333334H384a42.666667 42.666667 0 0 0 0 85.333334z m512 85.333333h-128V128a42.666667 42.666667 0 0 0-21.333333-37.12 42.666667 42.666667 0 0 0-42.666667 0l-128 73.386667-128-73.386667a42.666667 42.666667 0 0 0-42.666667 0l-128 73.386667-128-73.386667a42.666667 42.666667 0 0 0-42.666666 0A42.666667 42.666667 0 0 0 85.333333 128v682.666667a128 128 0 0 0 128 128h597.333334a128 128 0 0 0 128-128v-256a42.666667 42.666667 0 0 0-42.666667-42.666667zM213.333333 853.333333a42.666667 42.666667 0 0 1-42.666666-42.666666V201.813333l85.333333 48.64a46.08 46.08 0 0 0 42.666667 0l128-73.386666 128 73.386666a46.08 46.08 0 0 0 42.666666 0l85.333334-48.64V810.666667a128 128 0 0 0 7.68 42.666666z m640-42.666666a42.666667 42.666667 0 0 1-85.333333 0v-213.333334h85.333333z m-298.666666-298.666667H298.666667a42.666667 42.666667 0 0 0 0 85.333333h256a42.666667 42.666667 0 0 0 0-85.333333z" p-id="2424"></path></svg>