<?xml version="1.0" standalone="no"?><!DOCTYPE svg PUBLIC "-//W3C//DTD SVG 1.1//EN" "http://www.w3.org/Graphics/SVG/1.1/DTD/svg11.dtd"><svg t="1658288701545" class="icon" viewBox="0 0 1024 1024" version="1.1" xmlns="http://www.w3.org/2000/svg" p-id="3384" xmlns:xlink="http://www.w3.org/1999/xlink" width="256" height="256"><defs><style type="text/css">@font-face { font-family: feedback-iconfont; src: url("//at.alicdn.com/t/font_1031158_u69w8yhxdu.woff2?t=1630033759944") format("woff2"), url("//at.alicdn.com/t/font_1031158_u69w8yhxdu.woff?t=1630033759944") format("woff"), url("//at.alicdn.com/t/font_1031158_u69w8yhxdu.ttf?t=1630033759944") format("truetype"); }
</style></defs><path d="M224 831.936V192.096L223.744 192 800 192.096 800.256 832 224 831.936zM800.256 128H223.744A64 64 0 0 0 160 192.096v639.84A64 64 0 0 0 223.744 896h576.512A64 64 0 0 0 864 831.936V192.096A64 64 0 0 0 800.256 128z" p-id="3385"></path><path d="M640 416h-256a32 32 0 0 0 0 64h256a32 32 0 0 0 0-64M640 576h-256a32 32 0 0 0 0 64h256a32 32 0 0 0 0-64" p-id="3386"></path></svg>